# xmcd
#
# Track frame offsets: 
#        150
#        14128
#        36620
#        49291
#        64042
#        83965
#        101479
#        119846
#        132511
#        149060
#        164948
#        186832
#        201089
#        217220
#
# Disc length: 3118 seconds
#
# Revision: 2
# Processed by: cddbd v1.5.2PL0 Copyright (c) Steve Scherf et al.
# Submitted via: ExactAudioCopyFreeDBPlugin 1.0
#
DISCID=f30c2c0e
DTITLE=Glenn Miller Orchestra - It's Glenn Miller Time
DYEAR=2015
DGENRE=Swing
TTITLE0=Pennsylvannia 6-5000
TTITLE1=Tuxedo Junction
TTITLE2=Yes, My Darling Daughter
TTITLE3=Adios
TTITLE4=The Saint Louis Blues March
TTITLE5=Chattanooga Choo Choo
TTITLE6=I Got Rhythm
TTITLE7=Let's All Sing Together
TTITLE8=A String of Pearls
TTITLE9=American Patrol
TTITLE10=At Last
TTITLE11=Little Brown Jug
TTITLE12=Don't Sit Under the Apple Tree
TTITLE13=In the Mood
EXTD=
EXTT0=
EXTT1=
EXTT2=
EXTT3=
EXTT4=
EXTT5=
EXTT6=
EXTT7=
EXTT8=
EXTT9=
EXTT10=
EXTT11=
EXTT12=
EXTT13=
PLAYORDER=
